<svg width="40" height="40" viewBox="0 0 40 40" fill="none" xmlns="http://www.w3.org/2000/svg">
<path d="M27.5 16.25C27.5 15.9185 27.6317 15.6005 27.8661 15.3661C28.1005 15.1317 28.4185 15 28.75 15H31.25C31.5815 15 31.8995 15.1317 32.1339 15.3661C32.3683 15.6005 32.5 15.9185 32.5 16.25V18.75C32.5 19.0815 32.3683 19.3995 32.1339 19.6339C31.8995 19.8683 31.5815 20 31.25 20H28.75C28.4185 20 28.1005 19.8683 27.8661 19.6339C27.6317 19.3995 27.5 19.0815 27.5 18.75V16.25ZM20 16.25C20 15.9185 20.1317 15.6005 20.3661 15.3661C20.6005 15.1317 20.9185 15 21.25 15H23.75C24.0815 15 24.3995 15.1317 24.6339 15.3661C24.8683 15.6005 25 15.9185 25 16.25V18.75C25 19.0815 24.8683 19.3995 24.6339 19.6339C24.3995 19.8683 24.0815 20 23.75 20H21.25C20.9185 20 20.6005 19.8683 20.3661 19.6339C20.1317 19.3995 20 19.0815 20 18.75V16.25ZM7.5 23.75C7.5 23.4185 7.6317 23.1005 7.86612 22.8661C8.10054 22.6317 8.41848 22.5 8.75 22.5H11.25C11.5815 22.5 11.8995 22.6317 12.1339 22.8661C12.3683 23.1005 12.5 23.4185 12.5 23.75V26.25C12.5 26.5815 12.3683 26.8995 12.1339 27.1339C11.8995 27.3683 11.5815 27.5 11.25 27.5H8.75C8.41848 27.5 8.10054 27.3683 7.86612 27.1339C7.6317 26.8995 7.5 26.5815 7.5 26.25V23.75ZM15 23.75C15 23.4185 15.1317 23.1005 15.3661 22.8661C15.6005 22.6317 15.9185 22.5 16.25 22.5H18.75C19.0815 22.5 19.3995 22.6317 19.6339 22.8661C19.8683 23.1005 20 23.4185 20 23.75V26.25C20 26.5815 19.8683 26.8995 19.6339 27.1339C19.3995 27.3683 19.0815 27.5 18.75 27.5H16.25C15.9185 27.5 15.6005 27.3683 15.3661 27.1339C15.1317 26.8995 15 26.5815 15 26.25V23.75Z" fill="#FF9A16"/>
<path d="M8.75 0C9.08152 0 9.39946 0.131696 9.63388 0.366117C9.8683 0.600537 10 0.918479 10 1.25V2.5H30V1.25C30 0.918479 30.1317 0.600537 30.3661 0.366117C30.6005 0.131696 30.9185 0 31.25 0C31.5815 0 31.8995 0.131696 32.1339 0.366117C32.3683 0.600537 32.5 0.918479 32.5 1.25V2.5H35C36.3261 2.5 37.5979 3.02678 38.5355 3.96447C39.4732 4.90215 40 6.17392 40 7.5V35C40 36.3261 39.4732 37.5979 38.5355 38.5355C37.5979 39.4732 36.3261 40 35 40H5C3.67392 40 2.40215 39.4732 1.46447 38.5355C0.526784 37.5979 0 36.3261 0 35V7.5C0 6.17392 0.526784 4.90215 1.46447 3.96447C2.40215 3.02678 3.67392 2.5 5 2.5H7.5V1.25C7.5 0.918479 7.6317 0.600537 7.86612 0.366117C8.10054 0.131696 8.41848 0 8.75 0V0ZM2.5 10V35C2.5 35.663 2.76339 36.2989 3.23223 36.7678C3.70107 37.2366 4.33696 37.5 5 37.5H35C35.663 37.5 36.2989 37.2366 36.7678 36.7678C37.2366 36.2989 37.5 35.663 37.5 35V10H2.5Z" fill="#FF9A16"/>
</svg>
