<svg width="62" height="60" viewBox="0 0 62 60" fill="none" xmlns="http://www.w3.org/2000/svg">
<path d="M46.1875 27H43.1562V18C43.1562 11.4 37.7 6 31.0312 6C24.3625 6 18.9062 11.4 18.9062 18V27H15.875C14.3594 27 12.8438 28.5 12.8438 30V51C12.8438 52.5 14.3594 54 15.875 54H46.1875C47.7031 54 49.2188 52.5 49.2188 51V30C49.2188 28.5 47.7031 27 46.1875 27ZM34.0625 48H28L29.2125 41.4C27.6969 40.8 26.4844 39 26.4844 37.5C26.4844 35.1 28.6062 33 31.0312 33C33.4562 33 35.5781 35.1 35.5781 37.5C35.5781 39.3 34.6688 40.8 32.85 41.4L34.0625 48ZM37.0938 27H24.9688V18C24.9688 14.7 27.6969 12 31.0312 12C34.3656 12 37.0938 14.7 37.0938 18V27Z" fill="white"/>
</svg>
