<svg width="89" height="88" viewBox="0 0 89 88" fill="none" xmlns="http://www.w3.org/2000/svg">
<ellipse cx="44.0995" cy="43.8776" rx="11.0153" ry="10.8929" fill="#EE0000"/>
<path fill-rule="evenodd" clip-rule="evenodd" d="M44.0383 81.5744C64.8914 81.5744 81.7963 64.7518 81.7963 44C81.7963 23.2482 64.8914 6.4256 44.0383 6.4256C23.1851 6.4256 6.28027 23.2482 6.28027 44C6.28027 64.7518 23.1851 81.5744 44.0383 81.5744ZM43.7935 77.1683C62.1456 77.1683 77.023 62.2635 77.023 43.8776C77.023 25.4917 62.1456 10.5869 43.7935 10.5869C25.4413 10.5869 10.564 25.4917 10.564 43.8776C10.564 62.2635 25.4413 77.1683 43.7935 77.1683Z" fill="white"/>
<path d="M48.567 0H39.6323L44.0996 28.4562L48.567 0Z" fill="white"/>
<path d="M48.5057 88H39.571L44.0384 59.5438L48.5057 88Z" fill="white"/>
<path d="M-3.90545e-07 39.3798L0 48.3145L28.4562 43.8471L-3.90545e-07 39.3798Z" fill="white"/>
<path d="M88.2219 39.3491L88.2219 48.2837L59.7657 43.8164L88.2219 39.3491Z" fill="white"/>
</svg>
