<svg width="67" height="40" viewBox="0 0 67 40" fill="none" xmlns="http://www.w3.org/2000/svg">
<path d="M33.1034 0C35.6642 0 38.12 1.01724 39.9307 2.82794C41.7414 4.63863 42.7586 7.09446 42.7586 9.65517C42.7586 12.2159 41.7414 14.6717 39.9307 16.4824C38.12 18.2931 35.6642 19.3103 33.1034 19.3103C30.5427 19.3103 28.0869 18.2931 26.2762 16.4824C24.4655 14.6717 23.4483 12.2159 23.4483 9.65517C23.4483 7.09446 24.4655 4.63863 26.2762 2.82794C28.0869 1.01724 30.5427 0 33.1034 0ZM13.7931 6.89655C15.3379 6.89655 16.7724 7.31035 18.0138 8.05517C17.6 12 18.7586 15.9172 21.131 18.9793C19.7517 21.6276 16.9931 23.4483 13.7931 23.4483C11.5982 23.4483 9.49321 22.5764 7.94118 21.0243C6.38916 19.4723 5.51724 17.3673 5.51724 15.1724C5.51724 12.9775 6.38916 10.8725 7.94118 9.32049C9.49321 7.76847 11.5982 6.89655 13.7931 6.89655ZM52.4138 6.89655C54.6087 6.89655 56.7137 7.76847 58.2657 9.32049C59.8177 10.8725 60.6897 12.9775 60.6897 15.1724C60.6897 17.3673 59.8177 19.4723 58.2657 21.0243C56.7137 22.5764 54.6087 23.4483 52.4138 23.4483C49.2138 23.4483 46.4552 21.6276 45.0759 18.9793C47.481 15.8743 48.5974 11.9619 48.1931 8.05517C49.4345 7.31035 50.869 6.89655 52.4138 6.89655ZM15.1724 35.1724C15.1724 29.4621 23.2 24.8276 33.1034 24.8276C43.0069 24.8276 51.0345 29.4621 51.0345 35.1724V40H15.1724V35.1724ZM0 40V35.8621C0 32.0276 5.21379 28.8 12.2759 27.8621C10.6483 29.7379 9.65517 32.331 9.65517 35.1724V40H0ZM66.2069 40H56.5517V35.1724C56.5517 32.331 55.5586 29.7379 53.931 27.8621C60.9931 28.8 66.2069 32.0276 66.2069 35.8621V40Z" fill="#FF9A16"/>
</svg>
